<svg xmlns="http://www.w3.org/2000/svg" viewBox="0 0 324 325">
	<style type="text/css">  
		.st0{fill:#002F87;}
		.st1{fill:#FFFFFF;}
	</style>
	<rect x="-0.2" y="0.1" class="st0" width="324.5" height="324.5"/>
	<path class="st1" d="M77.5 100.1c8 1.8 16.1 6 16.1 16.4 0 16.3-19.1 15.5-23.5 15.4l-20.3-0.2v-1.3c10.6-1.4 9.2-4.1 9.4-13.1V86.7c-0.3-9.1 1.1-11.7-8.9-13v-1.3l14-0.7c9.9-0.3 25.4 1 25.4 15 0 8.6-5.2 11.6-12.2 13.3V100.1zM64.5 116.4c0 6.9-0.4 13.4 8.5 13.4 7.7 0 14.5-5 14.5-12.8 0-5.4-6.5-16-19.6-15.4l-3.4 0.2V116.4zM64.5 100c8.2-0.1 19.8-2.3 19.8-12.5 0-10.6-10.8-13.8-19.8-13.8V100z"/>
	<path class="st1" d="M123.6 103.3c0-6.8-2.6-8.5-6.7-8.5 -9.1 0-5.3 10.1-11.1 10.1 -1.7 0-2.9-0.9-2.9-2.7 0-3.6 8.9-9.9 16.4-9.9 6.6 0 9.8 4.7 9.8 13.2v21.6c0 2.3 2.7 1.6 3.8 1.6 1.5 0 2.5-0.6 3.4-1.5l1 1.1c-1.4 2.2-4.7 3.8-7.7 3.8 -3.1 0-5.9-2.2-6.1-5.8 -4.6 4.2-9.2 5.8-12.9 5.8 -5.6 0-7.6-3.4-7.6-7.7 0-6.8 3.6-8.8 15.2-11.7l5.3-1.4V103.3zM123.6 112.8l-3.9 1c-7.4 1.9-11.2 4.1-11.2 8.3 0 3.7 2.1 6.6 6.5 6.6 3.1 0 6-2 8.7-4V112.8z"/>
	<path class="st1" d="M142.2 99.6c-1.6-4-1.9-4.9-6.3-5.6v-1.3h16.3v1.3c-6.7 0.3-4.9 4.4-3.2 8.9l8.6 22.4 5.5-15.9c4-11.4 4.7-14.5-1.9-15.4v-1.3h15.4v1.3c-3.9 0.4-5.1 2-6.8 5.4l-3.7 8.5 -11.4 27.9c-3.3 8.2-5.5 10.9-9.1 10.9 -2.4 0-4.3-1.9-4.3-4.4 0-1.9 1.1-3.5 2.8-4.1 0.9 0.5 3.6 2.5 4.7 2.5 1.9 0 3.5-4.8 4.1-6.1l0.7-2.1L142.2 99.6z"/>
	<path class="st1" d="M176.2 131.7v-1.3c6.5-1 6.8-2 6.9-8.9V84.3c0-3.7 0.1-4.8-4.3-8v-0.9l8.6-3.9 1 0.3v49.6c0 7.2 0.4 7.9 6.9 8.9v1.3H176.2z"/>
	<path class="st1" d="M218.9 132.6c-12.1 0-19.4-7.7-19.4-20.2 0-12.2 7.7-20.5 19.5-20.5 12 0 20.2 7.8 20.2 20.2C239.2 124 230.5 132.6 218.9 132.6zM218.8 93.8c-9.5 0-13.4 9.9-13.4 18 0 8.2 4.6 18.8 14.1 18.8 8.9 0 12.9-10.1 12.9-17.7C232.4 104.8 228.4 93.8 218.8 93.8z"/>
	<path class="st1" d="M257.2 121.5c0 5.4-0.7 8.1 6.2 8.9v1.3h-18.1v-1.3c6.1-1 6.3-2 6.4-8.9v-16.8c0-3.7 0.1-4.8-4.3-8v-0.9l9.2-3.9 1 0.4 -0.4 10.4h0.2c1.9-4.7 6.9-10.8 12.4-10.8 2.5 0 4.5 1.6 4.5 4.1 0 2.4-2.6 4.6-4.6 5.5 -1.5-1.1-3.7-3.1-5.6-2.9 -7.5 0.7-6.9 12.7-6.9 14V121.5z"/>
	<path class="st1" d="M85.4 165.9h-0.8c-1-5.7-4.3-9.8-10.4-9.8 -9.3 0-14.5 7.6-14.5 16.3 0 10 7.6 16.9 15 16.9 6.6 0 9.3-4.9 11.6-10.3l0.7 0.3c-0.6 3.1-1.6 6.1-2.8 9.1 -3.2 1.6-6.7 2.2-10.3 2.2 -10.6 0-20-6.1-20-17.5 0-9 7-18.1 20.4-18.1 3.9 0 7.7 0.8 11.1 2.7V165.9z"/>
	<path class="st1" d="M103.3 190.4c-6.9 0-12.5-4.4-12.5-11.6 0-7 5.7-11.8 12.5-11.8 6.9 0 12.4 4.5 12.4 11.6C115.8 185.5 110 190.4 103.3 190.4zM103.3 168.1c-5.5 0-7.7 5.7-7.7 10.3 0 4.7 2.6 10.8 8.1 10.8 5.1 0 7.4-5.8 7.4-10.2C111.1 174.5 108.8 168.1 103.3 168.1z"/>
	<path class="st1" d="M117.5 189.9v-0.8c3.8-0.6 3.9-1.2 3.9-5.1v-22.3c0-2.1 0.1-2.8-2.5-4.6v-0.5l5.8-2.2 0.5 0.2V184c0 4.2 0.2 4.6 3.9 5.1v0.8H117.5z"/>
	<path class="st1" d="M131.1 189.9v-0.8c3.7-0.6 3.9-1.2 3.9-5.1v-22.3c0-2.1 0.1-2.8-2.5-4.6v-0.5l5.8-2.2 0.6 0.2V184c0 4.2 0.2 4.6 3.9 5.1v0.8H131.1z"/>
	<path class="st1" d="M148.4 177c-0.4 5.3 3.2 10.2 8.9 10.2 2.6 0 4.5-1.2 6-3.2l0.8 0.6c-1.9 3.3-5.4 5.9-9.3 5.9 -6.3 0-10.6-5.2-10.6-11.2 0-6.5 4.6-12.2 11.4-12.2 4.6 0 7.6 2.9 7.8 7.4h-14.7L148.4 177zM158.4 173.1c-0.5-2.3-1.9-5-4.6-5 -2.9 0-4.6 2.8-5.2 5.4L158.4 173.1z"/>
	<path class="st1" d="M182.9 186.1c5.4-0.2 8.4 2.1 8.4 5.5 0 5-6.7 10.6-15.8 10.6 -6 0-8.5-3-8.5-5.2 0-3.8 3.9-5.6 6.8-7.1 -1.9-0.3-5.2-1.5-5.2-3.9 0-1.6 2.7-3.6 3.9-4.5 -2.4-1.4-4.1-3.6-4.1-6.5 0-5.2 4.8-8.1 9.5-8.1 2.5 0 4.4 0.6 6.6 1.6h7.2v2.1l-6.2-0.1c0.7 1.3 1 2.4 1 4 0 5.2-4.7 8.1-9.4 8.1 -1.3 0-2.6-0.2-3.8-0.7 -1.7 1.6-1.6 4.5 3 4.3L182.9 186.1zM175.5 189.9c-1.8 0.8-4.7 2.8-4.7 5.1 0 3.7 5.4 4.7 8.2 4.7 3.6 0 9.3-1.6 9.3-6.1 0-4.8-6.6-4.1-7.9-4L175.5 189.9zM182.3 175.3c0-3.3-1.5-7.1-5.3-7.1 -3.3 0-4.4 3.4-4.4 6.1 0 5 3 7.3 5.3 7.3C181.4 181.6 182.3 178.1 182.3 175.3z"/>
	<path class="st1" d="M199 177c-0.4 5.3 3.2 10.2 8.9 10.2 2.6 0 4.5-1.2 6-3.2l0.8 0.6c-1.9 3.3-5.4 5.9-9.3 5.9 -6.3 0-10.6-5.2-10.6-11.2 0-6.5 4.6-12.2 11.4-12.2 4.5 0 7.6 2.9 7.8 7.4h-14.7L199 177zM209.1 173.1c-0.5-2.3-1.9-5-4.6-5 -2.9 0-4.6 2.8-5.2 5.4L209.1 173.1z"/>
	<path class="st1" d="M238.1 190.4c-6.9 0-12.5-4.4-12.5-11.6 0-7 5.7-11.8 12.5-11.8 6.9 0 12.4 4.5 12.4 11.6C250.5 185.5 244.7 190.4 238.1 190.4zM238 168.1c-5.5 0-7.7 5.7-7.7 10.3 0 4.7 2.6 10.8 8.1 10.8 5.1 0 7.4-5.8 7.4-10.2C245.8 174.5 243.5 168.1 238 168.1z"/>
	<path class="st1" d="M252.2 169.6l4.1-2.4c0-3 0.4-5.7 2-8.3 1.9-3 5.1-5.4 8.8-5.4 2 0 5.9 0.8 5.9 3.4 0 1.6-1.4 2.2-2.8 2.1 -1.2-1.7-3.3-4-5.6-4 -4.1 0-4.4 7-4.4 9.9v3h6.6v2.1h-6.6V184c0 4.2 0.2 4.6 4.9 5.1v0.8h-12.8v-0.8c3.8-0.6 4-1.2 4-5.1v-13.9h-4.1V169.6z"/>
	<path class="st1" d="M256.2 237.1c-0.5 6.1 3.7 11.8 10.3 11.8 3.1 0 5.2-1.3 6.9-3.7l0.9 0.6c-2.2 3.8-6.2 6.8-10.8 6.8 -7.3 0-12.3-6-12.3-13 0-7.5 5.3-14 13.2-14 5.3 0 8.8 3.3 9 8.6h-17L256.2 237.1zM267.9 232.6c-0.5-2.7-2.2-5.7-5.3-5.7 -3.3 0-5.3 3.3-6 6.2L267.9 232.6z"/>
	<path class="st1" d="M223.3 234.1c0-2.5 0.1-3.2-2.9-5.3v-0.6l6.9-2.6 0.6 0.2 -0.5 4.3c3.3-2.5 6.5-4.5 10.3-4.5 7 0 7.4 5.8 7.4 9.2v10.4c0 4.8 0.2 5.3 4.6 5.9v0.9h-13.6v-0.9c4.3-0.7 4.5-1.4 4.6-5.9v-6.7c0-4.1 0.2-9.9-7-9.9 -2.4 0-4 0.8-6 2.5v14.1c0 4.8 0.2 5.3 4.6 5.9v0.9h-13.6v-0.9c4.3-0.7 4.5-1.4 4.6-5.9V234.1z"/>
	<path class="st1" d="M213.5 217.2c0 1.6-1.4 3-3 3 -1.6 0-3-1.3-3-3 0-1.7 1.3-3 3-3C212.1 214.2 213.5 215.6 213.5 217.2z"/>
	<path class="st1" d="M203.3 252.1v-0.9c4.3-0.7 4.5-1.4 4.6-5.9v-11.2c0-2.5 0.1-3.2-3.6-5.3v-0.6l7.4-2.6 0.7 0.2v19.4c0 4.8 0.2 5.3 4.6 5.9v0.9H203.3z"/>
	<path class="st1" d="M200.3 247.8c-2.6 3-6.3 4.9-10.3 4.9 -7.1 0-12-6-12-12.8 0-8.2 7.1-14.2 15-14.2 1.9 0 6.4 0.2 6.4 2.9 0 1.3-1.4 2.7-2.7 2.7 -2.1 0-4.2-3.8-7.1-3.8 -4.7 0-6.9 5.4-6.9 9.4 0 7.6 5.2 12.3 10.9 12.3 2.4 0 4.1-0.9 6-2.3L200.3 247.8z"/>
	<path class="st1" d="M170.7 217.2c0 1.6-1.4 3-3 3 -1.6 0-3-1.3-3-3 0-1.7 1.4-3 3-3C169.4 214.2 170.7 215.6 170.7 217.2z"/>
	<path class="st1" d="M161.3 252.1v-0.9c4.3-0.7 4.5-1.4 4.6-5.9v-11.2c0-2.5 0.1-3.2-3.6-5.3v-0.6l7.4-2.6 0.6 0.2v19.4c0 4.8 0.2 5.3 4.6 5.9v0.9H161.3z"/>
	<path class="st1" d="M150 253.1v-5.6c-2.6 2.6-5.7 5.1-9.7 5.1 -6.3 0-11-6.2-11-12.2 0-8.9 7.2-14.9 15.8-14.9 1.7 0 3.3 0.2 4.9 0.6v-7.7c0-2.4 0.1-1.2-2.9-3.3v-0.6l6.7-2.6 0.7 0.2v32.3c0 5.4 0 6.1 4.9 5.4l0.2 1L150 253.1zM150 235.7c0-6.8-5.2-8.2-7.9-8.2 -5.4 0-7.8 5.5-7.8 10.2 0 8.4 5 12.1 9.4 12.1 2.3 0 5.1-2 6.3-4V235.7z"/>
	<path class="st1" d="M107.7 237.1c-0.5 6.1 3.7 11.8 10.3 11.8 3 0 5.1-1.3 6.9-3.7l0.9 0.6c-2.2 3.8-6.2 6.8-10.8 6.8 -7.3 0-12.3-6-12.3-13 0-7.5 5.3-14 13.2-14 5.3 0 8.8 3.3 9 8.6h-17L107.7 237.1zM119.3 232.6c-0.5-2.7-2.2-5.7-5.3-5.7 -3.3 0-5.3 3.3-6 6.2L119.3 232.6z"/>
	<path class="st1" d="M85.2 250.8c4.5-0.3 5.6-1 5.5-3.6 -0.2-9.4-0.2-19.1-0.6-28.3H90c-5 10.9-10.7 22.1-14.9 32.6h-0.9c-1.1-2.5-2.8-7.3-4.8-11.3 -2.1-4.1-6.2-13.4-9.9-22h-0.1c-0.1 10.2-0.5 19.8-0.5 25.5 0 5.1 1.1 7.2 5.7 7.2v1.3H51.5v-1.3c3.6-0.6 4.9-1.5 5.3-6.6 0.6-8 0.9-20.3 0.9-23.5 0-6.4-0.9-6.9-5.6-7.2v-1.3h10.4l11.2 25.3c0.9 2 1.8 3.7 2.6 6.1l15.1-31.5h9.7v1.3c-5 0.3-6 1.5-6 6.3 0 2.4 0.4 16.2 0.6 27.6 0.1 2.5 1.5 3.1 5.4 3.3v1.3H85.2V250.8z"/>
</svg>
